PathFileType	4	(X/Y/Z)	C:\Users\Basilio\Documents\Thesis Gigler\squatting_fais\c3dfiles\058\SLS_back_pre3\markers_experimental.trc
DataRate	CameraRate	NumFrames	NumMarkers	Units	OrigDataRate	OrigDataStartFrame	OrigNumFrames
200.000000	200.000000	4	59	mm	200.000000	300	1203
Frame#	Time	FHD			LBHD			RBHD			C7			T10			CLAV			LSHO			LUUPA			LMUPA			LDUPA			LLEP			LMEP			LUL			LRFIN			RSHO			RUPA1			RMUPA			RDUPA			RLEP			RMEP			RUL			RUFIN			LASI			RASI			USACR			LSACR			RSACR			LTHI1			LTHI2			LTHI3			LTHI4			LLFC			LMFC			LTIB1			LTIB2			LTIB3			LTIB4			LLMAL			LMMAL			LHEE			LMT1			LMT2			LMT5			RTHI			RTHI2			RTHI3			RTHI4			RLFC			RMFC			RTIB1			RTIB2			RTIB3			RTIB4			RLMAL			RMMAL			RHEE			RMT1			RMT2			RMT5			
		X1	Y1	Z1	X2	Y2	Z2	X3	Y3	Z3	X4	Y4	Z4	X5	Y5	Z5	X6	Y6	Z6	X7	Y7	Z7	X8	Y8	Z8	X9	Y9	Z9	X10	Y10	Z10	X11	Y11	Z11	X12	Y12	Z12	X13	Y13	Z13	X14	Y14	Z14	X15	Y15	Z15	X16	Y16	Z16	X17	Y17	Z17	X18	Y18	Z18	X19	Y19	Z19	X20	Y20	Z20	X21	Y21	Z21	X22	Y22	Z22	X23	Y23	Z23	X24	Y24	Z24	X25	Y25	Z25	X26	Y26	Z26	X27	Y27	Z27	X28	Y28	Z28	X29	Y29	Z29	X30	Y30	Z30	X31	Y31	Z31	X32	Y32	Z32	X33	Y33	Z33	X34	Y34	Z34	X35	Y35	Z35	X36	Y36	Z36	X37	Y37	Z37	X38	Y38	Z38	X39	Y39	Z39	X40	Y40	Z40	X41	Y41	Z41	X42	Y42	Z42	X43	Y43	Z43	X44	Y44	Z44	X45	Y45	Z45	X46	Y46	Z46	X47	Y47	Z47	X48	Y48	Z48	X49	Y49	Z49	X50	Y50	Z50	X51	Y51	Z51	X52	Y52	Z52	X53	Y53	Z53	X54	Y54	Z54	X55	Y55	Z55	X56	Y56	Z56	X57	Y57	Z57	X58	Y58	Z58	X59	Y59	Z59	

301	1.5	-271.0060119628907	1802.778564453125	-628.1893920898439	-429.4212646484376	1760.40087890625	-703.0866699218751	-257.6790466308594	1811.373291015625	-769.970886230469	-441.8373107910157	1592.239379882813	-718.9959106445314	-433.984588623047	1286.392700195313	-704.7640380859376	-282.4973449707032	1553.901611328125	-699.6275634765626	-295.5487976074219	1605.4853515625	-852.7216796875002	-135.4681396484375	1543.663940429688	-954.0156250000002	-112.8724975585938	1581.702026367188	-929.1223754882815	-66.17162322998048	1548.381103515625	-944.3264160156252	8.198218345642092	1555.578979492188	-924.7619628906252	14.50125980377198	1498.564453125	-892.9809570312502	272.2803039550782	1605.630249023438	-876.2197875976565	361.6459655761719	1607.260498046875	-790.4544677734377	-316.5210571289063	1604.9267578125	-549.2182617187501	-155.1963195800782	1523.392700195313	-444.2476806640626	-133.8489990234375	1562.217407226563	-468.6196594238282	-86.36710357666017	1533.9111328125	-447.1556701660157	-18.96378326416016	1528.305053710938	-456.8274536132814	-11.11062717437744	1468.036254882813	-507.2253417968751	247.5658721923829	1581.814453125	-473.7019042968751	336.6490173339844	1601.598388671875	-545.2344970703126	-257.5487365722657	1092.4755859375	-839.1921997070315	-254.7361297607422	1073.850708007813	-598.1500854492189	-447.6361083984376	1172.44189453125	-699.7728271484376	-455.2733154296876	1143.0009765625	-729.8455810546876	-450.7043457031251	1138.619995117188	-671.8750000000001	-245.5232543945313	836.0261230468752	-943.892272949219	-197.0874023437501	765.4031372070314	-947.9688720703127	-154.2311096191407	768.4248657226565	-919.7677001953127	-214.1673278808594	707.4136962890626	-953.4954223632815	-217.9395446777344	629.6948242187501	-951.803161621094	-207.941146850586	592.1021118164064	-820.7351684570315	-312.4167480468751	544.6753540039064	-928.3194580078127	-357.8331909179688	609.4507446289064	-965.0601806640627	-361.3431701660157	566.7388916015626	-956.5968017578127	-440.9898376464845	551.6506347656251	-933.2908325195315	-633.1816406250001	614.4497680664064	-933.5042724609377	-624.3272094726564	561.4626464843751	-853.0098876953127	-613.8162231445314	661.5249633789064	-864.4895629882815	-762.9116821289064	498.4519042968751	-869.0032348632815	nan	nan	nan	-769.7313232421877	563.2110595703126	-955.7847290039065	-367.9775390625001	863.2647094726565	-548.5392456054689	-333.0903015136719	807.0999755859377	-550.2067260742189	-299.5734252929688	806.386657714844	-551.1025390625001	-360.7994689941407	731.7175292968751	-574.8750000000001	-355.1875305175782	550.9448242187501	-608.2867431640626	-322.0324707031251	550.9386596679689	-742.4798583984376	-303.9822998046876	355.7724914550782	-713.1282348632814	-341.9848022460938	271.1187744140626	-657.0140380859376	-305.8750915527344	267.9270935058594	-688.4699707031251	-315.2076416015626	227.6913299560547	-728.2442626953126	-374.8074340820313	116.8864059448242	-698.9824829101564	-343.5802001953126	144.8995666503907	-783.9934082031252	-439.6308898925782	101.9094619750977	-763.9951171875001	-229.4551849365235	60.51437759399415	-775.740661621094	-223.5157165527344	59.20499801635744	-723.6704711914064	-273.6860046386719	26.82362937927247	-672.4719238281251	
302	1.505	-271.0542602539063	1802.791015625	-628.2944335937501	-429.4456176757814	1760.341674804688	-703.2590332031251	-257.8057250976563	1811.288696289063	-770.1539306640627	-441.818572998047	1592.223266601563	-719.1246948242189	-434.0746459960939	1286.314819335938	-704.8083496093751	-282.4658508300782	1553.7666015625	-699.7196044921876	-295.4938049316407	1605.4375	-852.871765136719	-135.478012084961	1543.460083007813	-954.0366210937502	-112.8382644653321	1581.614990234375	-929.1856079101565	-66.0528030395508	1548.257446289063	-944.414245605469	8.282019615173342	1555.520385742188	-924.8594360351565	14.50415325164795	1498.5205078125	-892.9768676757815	272.2048645019532	1605.564819335938	-876.4027099609377	361.7027587890626	1607.230346679688	-790.7003173828127	-316.5551147460938	1604.977783203125	-549.3201293945314	-155.1559448242188	1523.42578125	-444.2653198242189	-133.8553619384766	1562.21630859375	-468.6752014160157	-86.44947052001955	1533.8388671875	-447.2439880371095	-19.01548385620118	1528.293823242188	-456.8187255859376	-11.13131332397461	1467.925048828125	-507.1861877441407	247.5736999511719	1581.7568359375	-473.716033935547	336.7070312500001	1601.601928710938	-545.2013549804689	-257.7514648437501	1092.397827148438	-839.187927246094	-254.8721618652344	1073.828369140625	-598.1528320312501	-447.8982238769532	1172.2646484375	-699.7642822265626	-455.3916320800782	1143.010498046875	-729.8769531250001	-450.9617309570314	1138.605590820313	-671.8174438476564	-245.8344726562501	835.896911621094	-943.8201904296877	-197.3709564208985	765.2968750000001	-947.9121093750002	-154.4874877929688	768.1590576171877	-919.7901000976565	-214.5270690917969	707.3385620117189	-953.4976806640627	-218.2413940429688	629.5632934570314	-951.7943115234377	-208.2225494384766	591.9974365234376	-820.7368774414065	-312.4862060546876	544.6530761718751	-928.505798339844	-357.9967346191407	609.2989501953126	-965.056823730469	-361.5904541015626	566.5324096679689	-956.5765380859377	-441.143524169922	551.5078125000001	-933.2586059570315	-633.4560546875001	614.2175903320314	-933.5028076171877	-624.6231689453126	561.3952026367189	-853.0562744140627	-614.1999511718751	661.3603515625001	-864.1972656250002	-763.1546020507814	498.1036682128907	-869.280212402344	nan	nan	nan	-769.9415283203127	562.9329833984376	-955.9460449218752	-367.9997253417969	863.2031250000002	-548.5227050781251	-333.0602722167969	806.9311523437502	-550.2390747070314	-299.4891357421876	806.3598632812502	-551.0792846679689	-360.9050598144532	731.5384521484376	-574.8195800781251	-355.1821594238282	550.8676757812501	-608.2995605468751	-322.1390686035157	550.9420776367189	-742.5214843750001	-303.9699096679688	355.8059387207032	-713.2609252929689	-342.0063171386719	271.0994262695313	-657.1165771484376	-305.7966308593751	267.8606872558594	-688.6209106445314	-315.2508850097657	227.6587524414063	-728.3281250000001	-374.7955322265626	116.8916091918946	-699.1401977539064	-343.7005004882813	144.8742218017578	-784.097351074219	-439.6172485351564	101.9132919311524	-764.0225830078126	-229.2536315917969	60.11486053466798	-775.7235107421877	-224.5970916748047	57.94635391235353	-723.3057861328126	-273.7289428710938	26.88939285278321	-672.4902343750001	
303	1.51	-271.0217285156251	1802.789794921875	-628.4174804687501	-429.5047912597657	1760.230346679688	-703.3414916992189	-257.7802429199219	1811.22509765625	-770.3223876953127	-441.8682250976564	1592.23486328125	-719.2435302734376	-434.1371459960939	1286.3046875	-704.8020019531251	-282.3563842773438	1553.59228515625	-699.7747802734376	-295.4145507812501	1605.343505859375	-852.929382324219	-135.3757476806641	1543.1826171875	-954.1186523437502	-112.825553894043	1581.50634765625	-929.2625122070315	-66.0539016723633	1548.110473632813	-944.400329589844	8.334443092346193	1555.443237304688	-925.009460449219	14.52306365966797	1498.4521484375	-893.0921020507815	272.2297363281251	1605.504638671875	-876.5540771484377	361.8391418457032	1607.16064453125	-790.9061279296877	-316.5450439453126	1604.951782226563	-549.3956909179689	-155.1602935791016	1523.42138671875	-444.2779235839845	-133.8570251464844	1562.209228515625	-468.5900268554689	-86.4510955810547	1533.8505859375	-447.260955810547	-19.10268211364746	1528.254516601563	-456.8353576660157	-11.14628696441651	1467.884521484375	-507.2015686035157	247.5894012451172	1581.800537109375	-473.6025695800782	336.7083435058594	1601.610473632813	-545.1094360351564	-257.9952697753907	1092.246337890625	-839.2104492187502	-255.020980834961	1073.70947265625	-598.1091308593751	-447.9742126464845	1172.2353515625	-699.7388916015626	-455.508026123047	1142.95361328125	-729.9255371093751	-451.0209350585939	1138.583374023438	-671.8582153320314	-246.0462951660157	835.7353515625002	-943.7946777343752	-197.6103210449219	765.1889038085939	-947.8862915039065	-154.6811676025391	768.1395263671877	-919.8834228515627	-214.8151855468751	707.1738281250001	-953.4892578125002	-218.5850982666016	629.4036254882814	-951.8438720703127	-208.3233947753907	592.0046997070314	-820.7055664062502	-312.9858093261719	544.8358764648439	-928.2322998046877	-358.2645874023438	609.1271362304689	-965.0120849609377	-361.9049377441407	566.3580932617189	-956.554382324219	-441.8413391113282	552.0758056640626	-933.3525390625002	-633.6920776367189	613.9644165039064	-933.4838867187502	-625.1725463867189	561.0093383789064	-852.8430786132815	-614.3795776367189	661.2518310546876	-864.2226562500002	-763.3152465820314	497.7519531250001	-869.701599121094	nan	nan	nan	-770.175231933594	562.6512451171876	-955.968933105469	-367.9945678710938	863.1970214843752	-548.4906616210939	-333.0723876953126	806.949157714844	-550.2247314453126	-299.5180969238282	806.2856445312502	-551.0726928710939	-360.9362182617188	731.4959106445314	-574.8142089843751	-355.2201232910157	550.8199462890626	-608.3372802734376	-322.2177734375001	550.9626464843751	-742.5756835937501	-304.0101928710938	355.7657165527344	-713.3917846679689	-342.0039062500001	271.1077575683594	-657.2281494140626	-305.7849121093751	267.7854614257813	-688.8217773437501	-315.2620239257813	227.6076965332032	-728.5377197265626	-374.7664794921876	116.9382858276367	-699.2355957031251	-343.7267761230469	144.8313293457032	-784.2513427734377	-439.6403198242189	101.8523178100586	-764.0991210937501	-229.0443267822266	59.7565155029297	-775.7994384765627	-224.5972290039063	57.90833663940431	-723.2979736328126	-273.7173461914063	26.99914550781251	-672.4709472656251	
304	1.515	-271.1033325195313	1802.70458984375	-628.5814208984376	-429.5300598144532	1760.21923828125	-703.5137329101564	-257.7168884277344	1811.222290039063	-770.4146728515627	-441.8126831054689	1592.219482421875	-719.2984619140626	-434.1800537109376	1286.271118164063	-704.8381958007814	-282.2830505371094	1553.45849609375	-699.9271240234376	-295.3946228027344	1605.276733398438	-853.1195068359377	-135.2463684082032	1543.024291992188	-954.1819458007815	-112.7744140625	1581.443237304688	-929.3247070312502	-65.91954040527345	1548.027465820313	-944.5236816406252	8.413807868957521	1555.348510742188	-925.1040039062502	14.52232837677002	1498.4423828125	-893.1018676757815	272.2766418457032	1605.429931640625	-876.7488403320315	361.9414367675782	1607.113159179688	-791.1382446289065	-316.6140441894532	1604.928955078125	-549.5446166992189	-155.2341613769532	1523.421020507813	-444.291473388672	-133.851791381836	1562.234008789063	-468.5926818847657	-86.44925689697267	1533.851318359375	-447.2652282714845	-19.14530754089356	1528.281005859375	-456.8438415527345	-11.1626672744751	1468.049072265625	-507.2098693847657	247.5489044189454	1581.76220703125	-473.5595703125001	336.7649841308594	1601.614990234375	-545.0714111328126	-258.0981750488282	1092.148559570313	-839.178894042969	-255.0917205810547	1073.643432617188	-598.1179809570314	-448.0501403808595	1172.175048828125	-699.7551879882814	-455.6798095703126	1142.88671875	-729.8370361328126	-451.3004760742189	1138.496215820313	-671.7966308593751	-246.2882385253907	835.5437011718752	-943.769958496094	-197.9239196777344	765.0101318359376	-947.9165649414065	-155.1143646240235	768.1496582031252	-919.8020019531252	-215.1481170654297	707.0377807617189	-953.470153808594	-218.8370971679688	629.2084960937501	-951.799987792969	-208.9024810791016	591.9516601562501	-820.7100830078127	-313.0891723632813	544.5344848632814	-928.344665527344	-358.4866333007813	609.0074462890626	-964.9431762695315	-362.1007690429688	566.2267456054689	-956.4354248046877	-441.9833068847657	551.7485961914064	-933.2717285156252	-633.9724121093751	613.7097778320314	-933.3880615234377	-625.2744750976564	560.9251098632814	-852.9318847656252	-614.5084838867189	661.0891723632814	-864.2709960937502	-763.5618286132814	497.8072814941407	-869.776306152344	nan	nan	nan	-770.3218994140627	562.5109252929689	-955.958679199219	-367.9576110839844	863.1201782226565	-548.4656372070314	-333.0700683593751	806.8881835937502	-550.2149658203126	-299.5136413574219	806.2525634765627	-551.0523681640626	-360.9798889160157	731.4822998046876	-574.7959594726564	-355.2236328125001	550.7636108398439	-608.3840942382814	-322.4333496093751	550.9880371093751	-742.6810302734376	-303.9592590332032	355.8216247558594	-713.5987548828126	-342.0025024414063	271.0260925292969	-657.3247680664064	-305.7912902832032	267.7687988281251	-688.9581298828126	-315.2996215820313	227.5649719238282	-728.7105712890626	-374.7194213867188	116.9150924682617	-699.4136962890626	-343.7247619628907	144.8044586181641	-784.4175415039065	-439.6397399902345	101.861312866211	-764.1455078125001	-229.5247650146485	60.44443130493165	-775.8479003906252	-223.9690856933594	58.57456588745119	-723.5836791992189	-273.7037353515626	27.07224273681641	-672.5236206054689	
